<?xml version="1.0" encoding="UTF-8" standalone="no"?>
<!-- Creator: CorelDRAW 2018 (64-Bit) -->

<svg
   xml:space="preserve"
   width="2.71304in"
   height="2.67032in"
   version="1.1"
   style="shape-rendering:geometricPrecision; text-rendering:geometricPrecision; image-rendering:optimizeQuality; fill-rule:evenodd; clip-rule:evenodd"
   viewBox="0 0 29966.06 29494.25"
   id="svg476"
   sodipodi:docname="Buoy.svg"
   inkscape:version="1.1.1 (3bf5ae0d25, 2021-09-20)"
   xmlns:inkscape="http://www.inkscape.org/namespaces/inkscape"
   xmlns:sodipodi="http://sodipodi.sourceforge.net/DTD/sodipodi-0.dtd"
   xmlns="http://www.w3.org/2000/svg"
   xmlns:svg="http://www.w3.org/2000/svg"><sodipodi:namedview
   id="namedview478"
   pagecolor="#ffffff"
   bordercolor="#666666"
   borderopacity="1.0"
   inkscape:pageshadow="2"
   inkscape:pageopacity="0.0"
   inkscape:pagecheckerboard="0"
   inkscape:document-units="in"
   showgrid="false"
   inkscape:zoom="0.67485669"
   inkscape:cx="-3.7044902"
   inkscape:cy="208.19235"
   inkscape:window-width="1600"
   inkscape:window-height="877"
   inkscape:window-x="1358"
   inkscape:window-y="-8"
   inkscape:window-maximized="1"
   inkscape:current-layer="Layer_x0020_1" />
 <defs
   id="defs470">
  <style
   type="text/css"
   id="style468">
   <![CDATA[
    .fil0 {fill:black}
   ]]>
  </style>
 </defs>
 <g
   id="Layer_x0020_1"
   inkscape:label="Layer 1">
  <metadata
   id="CorelCorpID_0Corel-Layer" />
  <path
  fill="param(fill)"
  opacity="param(fill-opacity)"
   class="fil0"
   d="M6443.06 24446.8l3930.27 -3948.66c156.63,-156.68 453.46,-418.59 561.44,-579.87 238.95,159.98 219.69,230.69 774.73,550.7 538.82,310.61 1373.04,599.18 2007.71,716.81 1696.66,314.48 2970.68,10.31 4434.31,-751.6l595.7 -324.79c246.65,-151.42 290.87,-254.82 830.43,259.91 95.84,91.36 145.5,110.67 240.08,201.73l2944.68 3019.78c318.57,318.57 645.88,570.18 763.95,1076.91l-670.24 360.62c-88.06,55.23 -129.46,86.58 -225.12,143.07 -156.98,92.71 -274.48,177.9 -422.72,276.83 -2309.23,1540.33 -4010.98,2201.69 -7186.74,2201.69 -1549.16,0 -3571.13,-300.79 -4980.7,-910.1 -1107.61,-478.77 -2999.56,-1399.65 -3597.78,-2293.01zm8409.28 -24446.8l294.44 0c172.11,12.61 349.49,38.01 462.55,38.09 2391.77,1.87 5108.8,895.97 7150.82,2127.2 1063.43,641.19 1299.42,911.1 2149.73,1568.81l485.69 434.76c168.24,166.42 312.18,310.4 478.64,478.6l1255.11 1506.24c761.95,1009.55 1530.41,2436.69 1961.18,3635.01 311.22,865.74 628.71,2049.45 734.81,2983.77 14.48,127.5 28.05,276.91 49.66,428.98 47.75,335.66 37.05,1050.95 73.19,1289.07 48.92,322.79 -18.13,575.92 -15.74,898.97 2.09,281.22 -13.87,599.27 -51.96,868.48 -195.55,1381.52 -346.49,2404.77 -889.23,3749.76l-892.36 1905.78c-123.06,203.16 -220.34,375.67 -345.62,574.79 -126.5,200.94 -235.82,370.62 -360.93,559.52 -245.3,370.45 -540.65,720.46 -809.78,1067.91l-432.98 487.47c-166.29,163.85 -272.56,309.7 -441.77,478.68 -661.67,660.8 -1549.68,1383.3 -2308.19,1888.99l-867.31 531.74c-1444.62,781.3 -2311.84,1164.18 -3976.28,1583.21 -862.14,217.03 -1196.97,235.21 -2014.06,342.23 -695.98,91.14 -1469.06,60.97 -2183.17,62.75 -688.76,1.74 -1837.33,-168.24 -2464.13,-297.18 -1866.73,-384.06 -3712.19,-1169.4 -5245.43,-2191.69 -456.55,-304.35 -1199.49,-824.48 -1595.99,-1202.15 -306.27,-291.65 -698.24,-587.53 -975.41,-902.27 -920.01,-1044.73 -1142.61,-1220.8 -2023.19,-2615.8l-336.97 -583.48c-111.1,-220.73 -222.43,-386.89 -318.14,-602.31 -626.4,-1409.79 -1112.31,-2730.3 -1282.68,-4313.55 -87.01,-808.78 -58.23,-631.27 -78.84,-1320.25 -5,-167.59 -31,-199.03 -38.01,-351.06l0 -258.08c11.26,-468.07 68.79,-1170.31 107.06,-1565.29 133.46,-1378.52 439.03,-2490.09 891.23,-3747.76 202.6,-563.44 624.23,-1430.79 890.75,-1907.39 230.47,-412.11 446.03,-752.03 702.94,-1137.92 495.86,-744.81 1069.26,-1411.7 1688.05,-2030.49l736.77 -699.11c1002.42,-975.89 2684.12,-1949.39 3967.71,-2512.22 106.58,-46.75 237.6,-106.1 335.4,-143.2 721.64,-273.56 1318.25,-479.86 2093.07,-668.24 1572.42,-382.23 3242.64,-387.37 3314,-404.54l112.24 -35.09 13.13 -1.74zm353.27 19439.62c-890.01,0 -1463.06,-32.87 -2246.35,-441.33 -228.86,-119.32 -468.73,-275.7 -653.02,-451.51 -111.5,-106.36 -189.07,-140.72 -295.31,-256.95 -189.9,-207.64 -283.09,-369.75 -553.26,-551.26 -321.14,-215.82 -337.75,-254.3 -525.13,-579.4 -930.62,-1614.34 -834.13,-3618.09 291.44,-5125.2l552.13 -626.05c318.35,-253.74 254.87,-234.34 646.15,-495.21 507.6,-338.44 986.5,-540.65 1597.43,-685.24 128.02,-30.27 362.32,-76.62 495.82,-93.23 98.89,-12.31 181.77,-5 279.26,-15.31 991.55,-104.8 2042.8,252.6 2840.71,815.95 242.13,170.94 422.54,330.57 635.19,542.95 1360.13,1358.3 1792.76,3421.15 984.72,5237.13 -170.24,382.71 -655.97,1030.42 -961.85,1284.03 -472.68,391.93 -515.95,562.83 -1296.07,949.8 -501.95,248.95 -1064.73,490.82 -1791.85,490.82zm-6811.25 -4749.44c0,1453.27 523.91,2323.76 1004.72,3450.19 75.66,177.29 128.28,297.48 210.25,452.46 -105.23,157.16 -2119.33,2137.73 -2310.28,2328.67 -395.58,395.58 -763.86,764.51 -1159.75,1159.75 -334.49,333.92 -477.38,583.48 -880.75,849.66 -147.2,97.15 -247.21,117.8 -398.67,190.46 -727.68,-1375.22 -1020.94,-1083.69 -2062.8,-3459.81 -1489.93,-3398.1 -1174.4,-7406.82 455.12,-10665.85 391.97,-783.91 859.05,-1519.11 1431.79,-2176.3 125.85,-144.37 200.03,-269.26 360.01,-376.36 541.78,362.84 3564.82,3420.28 3746.63,3616.87l625.75 699.76c243.56,247.47 139.28,283.61 -3.39,567.83 -487.34,970.8 -1018.64,2233.44 -1018.64,3362.66zm12002.5 -3755.42l4519.45 -4500.79c136.11,94.15 261.08,225.69 361.75,355.97 668.54,865.61 695.02,761.38 1292.42,1837.07l579.74 1224.32c1213.06,3033.61 1316.08,6830.2 -4.96,9893.6 -466.16,1080.91 -1137.96,2071.46 -1880.03,2979.9 -125.89,154.15 -275.87,294.87 -303,396.54 -142.33,-38.01 -206.51,-151.02 -303.74,-248.52l-1454.27 -1417.48c-435.68,-435.68 -1729.45,-1692.27 -1991.88,-2021.23 -92.36,-115.8 -189.25,-187.51 -291.26,-297.83 -69.23,-74.79 -68.23,-91.01 -130.24,-164.29l-328.4 -407.98c-33.66,-45.27 -35.88,-47.53 -65.58,-81.67 126.37,-238.86 299.53,-492.64 399.89,-741.51l331.92 -846.22c456.03,-1356 448.07,-2929.81 -9.26,-4289.28 -258.69,-768.9 -345.92,-958.8 -722.55,-1670.61zm-1325.43 -1399.05c-131.93,0 -683.59,-313.4 -845.13,-406.63 -1377.52,-795.13 -1890.99,-881.96 -3572.95,-881.96 -1266.68,0 -2318.58,484.21 -3329.09,1088.95 -158.59,94.93 -280.7,138.98 -426.28,236.47l-1150.57 -1095.35c-355.27,-355.27 -2548.14,-2508.53 -2820.23,-2849.62 -168.46,-211.12 -411.5,-365.19 -557.74,-583.57 167.42,-88.62 438.72,-340.66 614.84,-489.69 844.09,-713.94 2014.1,-1351.17 3056.31,-1766.8 3422.1,-1364.87 7532.66,-1216.93 10896.28,464.68 1579.34,789.6 1511.02,983.46 2663.11,1754.97 -115.67,172.77 -4524.49,4528.54 -4528.54,4528.54z"
   id="path473" />
 </g>
</svg>
