<?xml version="1.0" encoding="UTF-8" standalone="no"?>
<!-- Creator: CorelDRAW 2018 (64-Bit) -->

<svg
   xml:space="preserve"
   width="2.79332in"
   height="2.80055in"
   version="1.1"
   style="shape-rendering:geometricPrecision; text-rendering:geometricPrecision; image-rendering:optimizeQuality; fill-rule:evenodd; clip-rule:evenodd"
   viewBox="0 0 4463.18 4474.73"
   id="svg526"
   sodipodi:docname="seismic.svg"
   inkscape:version="1.1.1 (3bf5ae0d25, 2021-09-20)"
   xmlns:inkscape="http://www.inkscape.org/namespaces/inkscape"
   xmlns:sodipodi="http://sodipodi.sourceforge.net/DTD/sodipodi-0.dtd"
   xmlns="http://www.w3.org/2000/svg"
   xmlns:svg="http://www.w3.org/2000/svg"><sodipodi:namedview
   id="namedview528"
   pagecolor="#ffffff"
   bordercolor="#666666"
   borderopacity="1.0"
   inkscape:pageshadow="2"
   inkscape:pageopacity="0.0"
   inkscape:pagecheckerboard="0"
   inkscape:document-units="in"
   showgrid="false"
   inkscape:zoom="2.4883505"
   inkscape:cx="134.02453"
   inkscape:cy="134.4264"
   inkscape:window-width="1600"
   inkscape:window-height="877"
   inkscape:window-x="1358"
   inkscape:window-y="-8"
   inkscape:window-maximized="1"
   inkscape:current-layer="svg526" />
 <defs
   id="defs520">
  <style
   type="text/css"
   id="style518">
   <![CDATA[
    .fil0 {fill:black}
   ]]>
  </style>
 </defs>
 <g
   id="Layer_x0020_1"
   inkscape:label="Layer 1">
  <metadata
   id="CorelCorpID_0Corel-Layer" />
  <path
  fill="param(fill)"
  opacity="param(fill-opacity)"
   class="fil0"
   d="M2231.67 0c1181.31,0 2148.69,915.55 2231.51,2075.78 -2.87,-1.8 -5.82,-3.72 -8.83,-5.69 -29.73,-19.37 -63.59,-41.45 -137.49,-40.98l-418.37 0.06 0 -0.15c-45.85,0 -91.52,-1.28 -140.19,-2.63 -163.69,-4.57 -358.61,-10 -469.8,24.04 -74.29,22.73 -114.56,73.2 -136.13,136.39 -19.59,57.41 -22.6,123.79 -22.6,187.82l0 923.69 -675.71 0 0 -2011.66 -0.15 0c-0.01,-24.36 1.14,-46.68 2.3,-69.16 1.25,-24.2 2.5,-48.6 2.5,-74.96l-0.15 0 0.01 -12.39c0.06,-106.43 0.12,-196.69 -48.92,-265.78 -13.99,-19.71 -26.67,-33.96 -42.22,-46.48 -15,-12.08 -31.85,-21.74 -54.66,-32.67 -89.23,-42.74 -471.46,-40.53 -646.72,-39.52 -7.7,0.04 -13.09,0.08 -55.09,0.08 -1.6,0 -3.18,0.1 -4.74,0.29l-430.19 18.88 0 -0.07c-6.95,0.53 -15.86,1.45 -25.33,2.53 -8.83,1 -20.05,2.46 -31.18,3.98 -0.6,0 -1.5,0.2 -2.1,0.3 -87.86,12.1 -149.9,21.09 -192.54,112.86 -50.73,109.18 -42.59,292.23 -35.65,448.27 2.13,47.85 4.14,93 4.14,135.18l0 558.68 -47.71 2.81 -0.01 -0.06c-84.19,6.84 -186.35,3.11 -291.73,-0.73 -185.29,-6.76 -380.27,-13.88 -515.06,33.35 -10.56,3.69 -20.73,8.23 -30.66,12.64l-8.23 3.63c81.59,-1161.41 1049.49,-2078.31 2231.67,-2078.31zm2231.41 2400.48c-83.55,1159.5 -1050.61,2074.25 -2231.41,2074.25 -1180.06,0 -2146.66,-913.59 -2231.27,-2072.05 26.28,21.29 65.43,47.9 155.3,47.9l818.3 0c55.87,0 106.46,-2.36 151.86,-11.86 48.45,-10.14 90.11,-28.38 124.35,-60.07 28.87,-26.73 52.53,-66.06 68.55,-111.39 15.38,-43.51 24.13,-93.48 23.99,-143.63 -0.03,-13.3 1.09,-23.34 2.22,-33.4 1.26,-11.2 2.53,-22.45 2.55,-41 0.03,-19.76 -1.37,-31.4 -2.75,-42.77 -1.08,-8.95 -2.15,-17.73 -2.26,-27.29 -0.47,-37.62 -1.51,-67.11 -2.6,-97.93l-0.03 -0.42c-0.58,-16.7 -1.2,-33.86 -1.69,-51.37l-0.07 -1.35 0.07 -0.01 -9.49 -143.65c0.16,-26.13 -1.01,-49.47 -2.21,-73.46 -1.11,-22.18 -2.26,-45.02 -2.26,-73.23l0 -153.43c0,-32.03 0.86,-67.26 2.82,-101.11 1.76,-30.35 4.36,-60.33 7.96,-87.08 0.67,-5.05 0.99,-10.01 1.18,-14.83l674.81 0 6.43 150.02 0.3 3.63c4.38,32.02 3.03,88.32 1.88,136.34 -0.45,19.02 -0.89,36.81 -0.92,52.53 -0.05,22.58 1.23,37.56 2.48,52.08 1.18,13.76 2.33,27.14 2.28,40.64l-0.11 293.18 -0.15 0c0,37.88 -1.11,66.96 -2.2,95.77 -1.23,32.28 -2.45,64.28 -2.45,94.85l0.11 3.01 -13.19 1152.25c-2.57,23.77 -3.36,60.5 -2.87,96.95 0.53,40.41 2.67,80.76 5.68,102.71 8.06,58.79 22.02,115.31 51.15,160.86 31.43,49.16 78.56,84.12 150.95,93.89 152.77,20.62 355.56,19.88 529.79,19.25l84.29 -0.06c39.37,0 82.24,-1.27 124.6,-2.52 40.39,-1.19 80.35,-2.37 121.82,-2.28 54.77,0.13 108.96,-4.12 161.18,-8.21l0.15 0c28.14,-2.2 55.73,-4.37 78.05,-5.6 48.15,-2.66 85.96,-5.89 119.24,-17.07 37.11,-12.46 65.94,-33.33 91.1,-70.58 18.96,-28.08 34.09,-61.66 44.24,-99.51 9.42,-35.13 14.52,-74.35 14.34,-116.64l-4.6 -956.87c94.86,-8.75 322.64,-1.97 467.15,2.33 56.36,1.67 100.87,3.01 117.12,3.01 194.35,0 268.41,-33.06 304.21,-54.74z"
   id="path523" />
 </g>
</svg>
