<?xml version="1.0" encoding="UTF-8" standalone="no"?>
<!-- Creator: CorelDRAW 2018 (64-Bit) -->

<svg
   xml:space="preserve"
   width="2.97459in"
   height="2.64457in"
   version="1.1"
   style="shape-rendering:geometricPrecision; text-rendering:geometricPrecision; image-rendering:optimizeQuality; fill-rule:evenodd; clip-rule:evenodd"
   viewBox="0 0 1333.93 1185.94"
   id="svg358"
   sodipodi:docname="weather.svg"
   inkscape:version="1.1.1 (3bf5ae0d25, 2021-09-20)"
   xmlns:inkscape="http://www.inkscape.org/namespaces/inkscape"
   xmlns:sodipodi="http://sodipodi.sourceforge.net/DTD/sodipodi-0.dtd"
   xmlns="http://www.w3.org/2000/svg"
   xmlns:svg="http://www.w3.org/2000/svg"><sodipodi:namedview
   id="namedview360"
   pagecolor="#ffffff"
   bordercolor="#666666"
   borderopacity="1.0"
   inkscape:pageshadow="2"
   inkscape:pageopacity="0.0"
   inkscape:pagecheckerboard="0"
   inkscape:document-units="in"
   showgrid="false"
   inkscape:zoom="0.93165433"
   inkscape:cx="91.772235"
   inkscape:cy="175.49427"
   inkscape:window-width="1600"
   inkscape:window-height="877"
   inkscape:window-x="1358"
   inkscape:window-y="-8"
   inkscape:window-maximized="1"
   inkscape:current-layer="svg358" />
 <defs
   id="defs352">
  <style
   type="text/css"
   id="style350">
   <![CDATA[
    .fil0 {fill:black}
   ]]>
  </style>
 </defs>
 <g
   id="Layer_x0020_1"
   inkscape:label="Layer 1">
  <metadata
   id="CorelCorpID_0Corel-Layer" />
  <path
  fill="param(fill)"
  opacity="param(fill-opacity)"
   class="fil0"
   d="M518.91 522.54c-200.19,52 -186.18,298.8 -26.73,355.51 38.9,13.83 69.07,11.42 113.05,11.42l498.93 0c43.72,0 73.27,1.98 111.74,-12.75 123.9,-47.46 165.36,-218.05 50.45,-314.98 -11.62,-9.8 -22.81,-17.44 -37.29,-24.21 -27.17,-12.69 -41.49,-11.33 -46.47,-17.83 -0.49,-0.64 -29.96,-140.64 -170.73,-148.6 -53.37,-3.02 -73.76,15 -93.04,16.84 -11.92,-28.11 -66.6,-64.9 -100.96,-77.93 -49.17,-18.65 -103.5,-17.64 -152.46,-0.28 -76.3,27.06 -150.6,106.25 -146.49,212.83zm490.88 486.79c7.06,-26.63 -17.86,-51.89 -46.47,-44.25 -19.6,5.24 -31.83,35.26 -41.67,52.68 -10.23,18.11 -65.25,110.3 -68.3,122.29 -6.87,26.97 18.17,52.35 46.3,44.29 19.72,-5.65 30.75,-32.47 41.84,-52.28 8.19,-14.64 64.87,-109.79 68.3,-122.73zm-223.62 4.11c10.47,-27.92 -14.11,-54.88 -43.01,-48.87 -20.87,4.33 -32.67,32.72 -43.06,51.37 -10.67,19.15 -64.04,109.23 -68.06,120.67 -9.46,26.87 14.31,54.08 42.05,48.31 23.12,-4.81 32.94,-31.62 43.68,-50.7 11.5,-20.42 63.6,-108.01 68.39,-120.77zm-221.67 -2.06c8.88,-27.97 -16.38,-53.31 -44.91,-46.55 -21.3,5.04 -31.14,32.91 -42.21,52.14 -10.44,18.13 -64.56,109.77 -68.01,120.75 -8.81,27.98 17.01,54.14 44.7,46.87 21.63,-5.67 32.02,-33.84 42.48,-51.94 10.22,-17.69 64.3,-109.77 67.95,-121.28zm667.63 -2.05c7.55,-26.81 -18.21,-52.03 -46.95,-44.11 -14.48,3.99 -17.41,10.99 -24.33,22.82 -13.1,22.4 -82.34,141.19 -84.94,151.2 -7.4,28.5 19.47,53.74 46.76,44.91 21.78,-7.05 30.26,-34.02 41.59,-53.05 12.3,-20.65 22.57,-39.62 34.52,-60.02 7.58,-12.94 29.51,-48.15 33.34,-61.75zm-887.66 -457.04c7.28,-4.84 17.74,-20.73 23.49,-26.66 17.34,-17.9 35.51,-32.58 57.19,-45.38 6.52,-3.85 10.02,-5.18 16.32,-8.37 17.96,-9.08 4.11,-30.46 37.97,-91.39 17.56,-31.6 35.84,-49.93 41.93,-61.04 -22.69,-20.32 -74.08,-27.66 -110.08,-19.27 -38.33,8.93 -66.36,31.15 -83.76,53.61 -20.9,26.98 -34.97,62.56 -30.25,107.4 3.69,35.04 27.63,79.85 47.19,91.11zm-8.34 -372.49c-12.05,-0.97 -38.92,-11.68 -51.85,-15.93 -16.59,-5.45 -33.28,-11.07 -50.98,-16.91 -16.39,-5.42 -33.71,-11.15 -50.64,-16.69 -19.7,-6.44 -38.63,-15.65 -53.4,0.65 -13.54,14.94 -5.57,32.48 0.29,50.11l33.97 101.75c4.41,13.81 15,40.1 16.9,53.47l-143.89 71.36c-18.24,9.35 -36.59,14.63 -36.53,37.01 0.06,23.07 18.79,27.99 35.04,36.27l145.22 72.43c-5.59,37.6 -61.43,164.13 -58.59,188.37 1.89,16.06 16.51,28.59 35.84,25.73l140.03 -47.59c-1.33,-70.31 4.04,-48.9 12.6,-98.55 -26.02,-24.66 -40.28,-30.23 -61.86,-72.12 -76.21,-147.88 24.76,-313.54 174.39,-325.36 32.82,-2.59 64.23,1.05 92.44,11.12 13.83,4.94 23.27,9.36 35.58,15.86 7.58,4.01 28.11,18.74 32.52,17.57 2.22,-0.58 26.96,-14.74 33.28,-17.75 25.07,-11.9 52,-20.44 80.09,-24.65 16.65,-2.5 33.63,-1.79 49.22,-4.01 8.88,-26.48 43.56,-93.69 -3.08,-100.18 -11.15,-1.55 -29.67,6.18 -40.24,9.63 -24.36,7.96 -48.74,16.1 -73.96,24.49 -15.37,5.11 -62.11,22.82 -74.62,23.84l-72.37 -143.15c-7.97,-16.03 -13.99,-36.17 -36.43,-36.56 -23.37,-0.4 -28.81,19.34 -37.27,35.73 -8.65,16.74 -15.72,30.71 -24.16,47.82 -15.02,30.45 -34.84,65.42 -47.54,96.24z"
   id="path355" />
 </g>
</svg>
