<?xml version="1.0" encoding="UTF-8" standalone="no"?>
<!-- Creator: CorelDRAW 2018 (64-Bit) -->

<svg
   xml:space="preserve"
   width="2.83887in"
   height="2.13074in"
   version="1.1"
   style="shape-rendering:geometricPrecision; text-rendering:geometricPrecision; image-rendering:optimizeQuality; fill-rule:evenodd; clip-rule:evenodd"
   viewBox="0 0 1561.86 1172.26"
   id="svg204"
   sodipodi:docname="wl.svg"
   inkscape:version="1.1.1 (3bf5ae0d25, 2021-09-20)"
   xmlns:inkscape="http://www.inkscape.org/namespaces/inkscape"
   xmlns:sodipodi="http://sodipodi.sourceforge.net/DTD/sodipodi-0.dtd"
   xmlns="http://www.w3.org/2000/svg"
   xmlns:svg="http://www.w3.org/2000/svg"><sodipodi:namedview
   id="namedview206"
   pagecolor="#ffffff"
   bordercolor="#666666"
   borderopacity="1.0"
   inkscape:pageshadow="2"
   inkscape:pageopacity="0.0"
   inkscape:pagecheckerboard="0"
   inkscape:document-units="in"
   showgrid="false"
   inkscape:zoom="1.6352887"
   inkscape:cx="194.76683"
   inkscape:cy="137.28462"
   inkscape:window-width="1600"
   inkscape:window-height="877"
   inkscape:window-x="1358"
   inkscape:window-y="-8"
   inkscape:window-maximized="1"
   inkscape:current-layer="Layer_x0020_1" />
 <defs
   id="defs198">
  <style
   type="text/css"
   id="style196">
   <![CDATA[
    .fil0 {fill:black}
   ]]>
  </style>
 </defs>
 <g
   id="Layer_x0020_1"
   inkscape:label="Layer 1">
  <metadata
   id="CorelCorpID_0Corel-Layer" />
  <path
  fill="param(fill)"
  opacity="param(fill-opacity)"
   class="fil0"
   d="M3.67 1069.57c0,38.65 -6.67,102.7 40.35,102.7 27.5,0 91.98,-16.24 117.6,-25.44 9.26,-3.33 15.5,-6.8 24.39,-10.46 69.78,-28.72 47.95,-56.19 134.32,-13 45.52,22.76 72.48,34.42 125.29,43.43 13.78,2.35 65.35,6.64 78.11,4.7 12.34,-1.88 43.73,-0.26 78.62,-5.74 48.32,-7.58 82.62,-24.09 124.51,-44.2 7.8,-3.74 52.35,-26.31 58.05,-26.31l48.27 30.59c119.24,59.66 293.09,60.41 412.65,1.21l36.09 -22.59c14.34,-10.99 3.22,-16.75 59.87,11.58 16.4,8.2 32.29,15.39 48.27,23.26 7.7,3.79 15.81,6.78 24.37,10.47 26.2,11.29 52.46,20.44 75.23,22.51l17.9 0c29.07,-3.08 49.24,-22.97 50.47,-73.59 0.09,-3.7 -1.12,-10.96 -1.11,-18.06 0.05,-27.14 0.1,-50.74 -5.05,-71.98 -12.36,-50.91 -43.42,-27.15 -101.54,-50.67 -56.65,-22.93 -86.23,-58.4 -121,-71.55 -53.26,-20.15 -73.97,7.13 -118.6,36.81 -33.31,22.15 -47,30.61 -90.58,41.46 -49.94,12.43 -106.94,12.47 -157.01,0 -18.6,-4.63 -48.56,-13.58 -65.14,-22.89 -19.43,-10.91 -34.63,-23.2 -51.16,-36.87 -47.43,-39.23 -83.43,-30.72 -129.43,-0.05 -64.18,42.79 -102.18,69.32 -194.76,69.32 -64.37,0 -118.84,-15.52 -169.47,-50.6 -54.37,-37.68 -88.16,-74.63 -166.71,-10.49 -135.33,110.51 -182.82,-2.5 -182.82,156.45zm0 -913.28l0 88.03c0,30.88 27.7,47.68 56.85,47.68 72.35,0 180.86,-71.18 201.13,-75.8 12.08,-2.76 126.08,75.8 240.84,75.8 88.88,0 125.27,-7.12 203.3,-38.77l68.13 -34.66c13.27,-6.22 16.68,1.01 41.53,13.54l28.91 13.27c20.59,8.56 38.83,15.44 59.97,22.55 96.2,32.36 222.93,34.06 315.2,-10.78 9.29,-4.51 18.53,-7.75 27.43,-12.92 66.29,-38.53 46.62,-32.11 121.72,8.65 41.66,22.61 146.2,66.85 179.55,13.86 10.63,-16.89 10.71,-39.53 10.56,-66.47 -0.04,-7.45 0.15,-10.68 1.15,-17.32l-4.08 -53.06c-12.01,-44.46 -64.81,-25.51 -152.83,-78.25 -62.54,-37.48 -89.2,-77.75 -164.79,-27.04 -34.98,23.46 -46.65,33.07 -82.93,49.1 -76.26,33.69 -179.32,27.63 -254.28,-9.71 -53.64,-26.72 -97.85,-103.63 -184.49,-38.44 -40.5,30.47 -63.78,45.3 -114.26,58.13 -53.42,13.58 -114.98,14.44 -168.06,-0.35 -71.21,-19.83 -128.31,-82.94 -164.64,-82.94 -39.48,0 -49.38,8.9 -82.25,33.29 -10.17,7.55 -20.45,13.44 -31.35,20 -21.4,12.89 -44.51,24.18 -68.6,32.26 -12.85,4.31 -27.16,7.35 -41.08,10.27 -31.96,6.7 -42.64,15.83 -42.64,60.06zm-3.67 447.47c0,17.41 2.46,74.27 6.63,88.73 30.58,106.14 243.92,-35.55 257.45,-35.55l111.18 48.37c111.25,39.55 181.32,36.69 294.78,3.65 30.25,-8.81 57.47,-26.04 83.69,-39.18 37.38,-18.73 24.58,-15.01 60.49,3.69l67.64 29.55c63.75,22.92 135.4,36.04 209.63,27.6 58.75,-6.68 106.94,-21.75 150.66,-43.73l46 -25.62c7.96,-4.93 9.3,-4.52 17.53,-0.72l100.4 46.41c31.3,13.53 83.95,31.65 117.56,21.17 25.66,-8 33.08,-29.9 35.23,-61.96 2.59,-38.56 11.24,-94.12 -21.48,-118.02 -8.7,-6.36 -22.43,-11.79 -34.37,-15.15 -38.31,-10.76 -69.97,-22.49 -102.99,-41.89 -39.36,-23.12 -60.44,-50.58 -107.14,-50.58 -32.01,0 -75.65,40.84 -114.3,61.76 -9.42,5.09 -20.71,9.55 -30.55,13.46 -80.28,31.86 -175.44,24.77 -247.03,-15.26 -19.41,-10.85 -34.49,-21.41 -52.64,-33.56l-26.13 -16.05c-65.41,-33.3 -104.15,18.36 -151.81,47.56 -50.97,31.24 -103.84,35.62 -162.44,35.62 -48.43,0 -100.03,-18.17 -132.06,-34.82 -69.45,-36.09 -87.94,-101.26 -187.57,-26.23 -18.9,14.24 -42.91,32.04 -65.73,40.63 -63.61,23.94 -122.62,15.87 -122.62,90.11z"
   id="path201" />
 </g>
</svg>
